<?xml version="1.0" encoding="utf-8" standalone="no"?>
<!DOCTYPE svg PUBLIC "-//W3C//DTD SVG 1.1//EN"
  "http://www.w3.org/Graphics/SVG/1.1/DTD/svg11.dtd">
<svg xmlns:xlink="http://www.w3.org/1999/xlink" width="1152pt" height="576pt" viewBox="0 0 1152 576" xmlns="http://www.w3.org/2000/svg" version="1.1">
 <metadata>
  <rdf:RDF xmlns:dc="http://purl.org/dc/elements/1.1/" xmlns:cc="http://creativecommons.org/ns#" xmlns:rdf="http://www.w3.org/1999/02/22-rdf-syntax-ns#">
   <cc:Work>
    <dc:type rdf:resource="http://purl.org/dc/dcmitype/StillImage"/>
    <dc:date>2026-06-06T09:38:37.441245</dc:date>
    <dc:format>image/svg+xml</dc:format>
    <dc:creator>
     <cc:Agent>
      <dc:title>Matplotlib v3.10.8, https://matplotlib.org/</dc:title>
     </cc:Agent>
    </dc:creator>
   </cc:Work>
  </rdf:RDF>
 </metadata>
 <defs>
  <style type="text/css">*{stroke-linejoin: round; stroke-linecap: butt}</style>
 </defs>
 <g id="figure_1">
  <g id="patch_1">
   <path d="M 0 576 
L 1152 576 
L 1152 0 
L 0 0 
z
" style="fill: #ffffff"/>
  </g>
  <g id="axes_1">
   <g id="patch_2">
    <path d="M 55.184375 522.424833 
L 1141.2 522.424833 
L 1141.2 26.7 
L 55.184375 26.7 
z
" style="fill: #ffffff"/>
   </g>
   <g id="matplotlib.axis_1">
    <g id="xtick_1">
     <g id="line2d_1">
      <path d="M 104.548722 522.424833 
L 104.548722 26.7 
" clip-path="url(#p3f317de781)" style="fill: none; stroke: #b0b0b0; stroke-width: 0.8; stroke-linecap: square"/>
     </g>
     <g id="line2d_2">
      <defs>
       <path id="mac7701bdee" d="M 0 0 
L 0 3.5 
" style="stroke: #000000; stroke-width: 0.8"/>
      </defs>
      <g>
       <use xlink:href="#mac7701bdee" x="104.548722" y="522.424833" style="stroke: #000000; stroke-width: 0.8"/>
      </g>
     </g>
     <g id="text_1">
      <!-- 2时 -->
      <g transform="translate(100.67676 546.557809) rotate(-45) scale(0.1 -0.1)">
       <defs>
        <path id="HiraginoSansGB-W3-32" d="M 3027 38 
C 3347 38 3558 26 3814 0 
L 3814 538 
C 3571 506 3354 493 3034 493 
L 992 493 
C 1069 800 1158 973 1357 1235 
C 1568 1504 1773 1683 2278 2022 
C 3008 2509 3174 2630 3366 2848 
C 3616 3123 3744 3430 3744 3757 
C 3744 4512 3123 4998 2157 4998 
C 1594 4998 1158 4832 870 4506 
C 659 4269 563 4045 467 3584 
L 1005 3494 
C 1050 3814 1107 3968 1229 4141 
C 1421 4416 1734 4557 2157 4557 
C 2810 4557 3219 4243 3219 3757 
C 3219 3366 3008 3085 2374 2656 
C 1632 2150 1619 2144 1395 1952 
C 992 1606 723 1254 563 851 
C 467 608 448 512 378 6 
C 582 32 678 38 1082 38 
L 3027 38 
z
" transform="scale(0.015625)"/>
        <path id="HiraginoSansGB-W3-65f6" d="M 5254 3418 
L 5466 3418 
C 5670 3418 5875 3411 6074 3392 
L 6074 3827 
C 5907 3802 5722 3789 5459 3789 
L 5254 3789 
L 5254 4525 
C 5254 4838 5267 5056 5293 5274 
L 4800 5274 
C 4832 5088 4845 4826 4845 4525 
L 4845 3789 
L 3232 3789 
C 2963 3789 2733 3802 2566 3827 
L 2566 3379 
C 2733 3405 2982 3418 3245 3418 
L 4845 3418 
L 4845 256 
C 4845 115 4787 90 4525 90 
C 4224 90 4038 109 3648 166 
C 3718 6 3750 -90 3770 -269 
C 4064 -294 4288 -307 4550 -307 
C 5120 -307 5254 -205 5254 218 
L 5254 3418 
z
M 2842 2624 
C 3226 2170 3488 1773 3763 1197 
L 4115 1453 
C 3814 2003 3590 2323 3162 2835 
L 2842 2624 
z
M 486 589 
C 486 320 480 128 454 -90 
L 883 -90 
L 883 512 
L 1914 512 
L 1914 147 
L 2330 147 
C 2310 352 2304 480 2304 704 
L 2304 4262 
C 2304 4557 2310 4710 2323 4858 
C 2176 4845 2016 4838 1741 4838 
L 1050 4838 
C 781 4838 602 4845 467 4858 
C 486 4602 486 4499 486 4243 
L 486 589 
z
M 883 4480 
L 1914 4480 
L 1914 2938 
L 883 2938 
L 883 4480 
z
M 883 2579 
L 1914 2579 
L 1914 870 
L 883 870 
L 883 2579 
z
" transform="scale(0.015625)"/>
       </defs>
       <use xlink:href="#HiraginoSansGB-W3-32"/>
       <use xlink:href="#HiraginoSansGB-W3-65f6" transform="translate(65.699997 0)"/>
      </g>
     </g>
    </g>
    <g id="xtick_2">
     <g id="line2d_3">
      <path d="M 194.302079 522.424833 
L 194.302079 26.7 
" clip-path="url(#p3f317de781)" style="fill: none; stroke: #b0b0b0; stroke-width: 0.8; stroke-linecap: square"/>
     </g>
     <g id="line2d_4">
      <g>
       <use xlink:href="#mac7701bdee" x="194.302079" y="522.424833" style="stroke: #000000; stroke-width: 0.8"/>
      </g>
     </g>
     <g id="text_2">
      <!-- 4时 -->
      <g transform="translate(190.416306 546.585431) rotate(-45) scale(0.1 -0.1)">
       <defs>
        <path id="HiraginoSansGB-W3-34" d="M 198 1254 
C 410 1274 602 1280 960 1280 
L 2675 1280 
L 2675 730 
C 2675 442 2662 262 2624 38 
L 3206 38 
C 3168 275 3155 422 3155 730 
L 3155 1280 
L 3392 1280 
C 3667 1280 3827 1267 4064 1235 
L 4064 1766 
C 3834 1734 3667 1722 3398 1722 
L 3155 1722 
L 3155 3821 
C 3155 4326 3162 4525 3194 4902 
L 2714 4902 
C 2566 4678 2451 4518 2234 4250 
L 614 2227 
C 480 2067 333 1888 198 1734 
L 198 1254 
z
M 2682 1715 
L 768 1715 
L 2240 3571 
C 2426 3808 2586 4019 2720 4211 
C 2688 3885 2682 3680 2682 3341 
L 2682 1715 
z
" transform="scale(0.015625)"/>
       </defs>
       <use xlink:href="#HiraginoSansGB-W3-34"/>
       <use xlink:href="#HiraginoSansGB-W3-65f6" transform="translate(66.099991 0)"/>
      </g>
     </g>
    </g>
    <g id="xtick_3">
     <g id="line2d_5">
      <path d="M 284.055436 522.424833 
L 284.055436 26.7 
" clip-path="url(#p3f317de781)" style="fill: none; stroke: #b0b0b0; stroke-width: 0.8; stroke-linecap: square"/>
     </g>
     <g id="line2d_6">
      <g>
       <use xlink:href="#mac7701bdee" x="284.055436" y="522.424833" style="stroke: #000000; stroke-width: 0.8"/>
      </g>
     </g>
     <g id="text_3">
      <!-- 6时 -->
      <g transform="translate(280.183474 546.557809) rotate(-45) scale(0.1 -0.1)">
       <defs>
        <path id="HiraginoSansGB-W3-36" d="M 3725 4006 
C 3539 4390 3411 4563 3187 4723 
C 2944 4896 2598 4992 2214 4992 
C 1658 4992 1203 4755 864 4294 
C 557 3878 378 3162 378 2362 
C 378 1453 608 736 1024 352 
C 1299 96 1728 -51 2182 -51 
C 3194 -51 3859 602 3859 1594 
C 3859 2579 3245 3194 2253 3194 
C 1811 3194 1472 3072 1171 2803 
C 1030 2682 966 2592 851 2394 
C 896 3091 954 3386 1120 3770 
C 1350 4294 1728 4563 2227 4563 
C 2547 4563 2797 4454 2989 4243 
C 3085 4134 3130 4045 3213 3840 
L 3725 4006 
z
M 3354 1581 
C 3354 1331 3290 1069 3187 902 
C 2989 582 2605 384 2189 384 
C 1498 384 979 896 979 1587 
C 979 1907 1088 2189 1299 2400 
C 1523 2624 1862 2765 2182 2765 
C 2931 2765 3354 2336 3354 1581 
z
" transform="scale(0.015625)"/>
       </defs>
       <use xlink:href="#HiraginoSansGB-W3-36"/>
       <use xlink:href="#HiraginoSansGB-W3-65f6" transform="translate(65.699997 0)"/>
      </g>
     </g>
    </g>
    <g id="xtick_4">
     <g id="line2d_7">
      <path d="M 373.808794 522.424833 
L 373.808794 26.7 
" clip-path="url(#p3f317de781)" style="fill: none; stroke: #b0b0b0; stroke-width: 0.8; stroke-linecap: square"/>
     </g>
     <g id="line2d_8">
      <g>
       <use xlink:href="#mac7701bdee" x="373.808794" y="522.424833" style="stroke: #000000; stroke-width: 0.8"/>
      </g>
     </g>
     <g id="text_4">
      <!-- 8时 -->
      <g transform="translate(369.936832 546.557809) rotate(-45) scale(0.1 -0.1)">
       <defs>
        <path id="HiraginoSansGB-W3-38" d="M 2752 2586 
C 3322 2694 3680 3142 3680 3738 
C 3680 4525 3078 5005 2099 5005 
C 1133 5005 525 4512 525 3738 
C 525 3142 890 2688 1453 2586 
C 1216 2547 1075 2496 877 2368 
C 493 2118 307 1766 307 1306 
C 307 422 954 -64 2125 -64 
C 3251 -64 3891 429 3891 1306 
C 3891 1734 3731 2074 3411 2310 
C 3200 2470 3021 2547 2752 2586 
z
M 2099 4576 
C 2758 4576 3181 4237 3181 3699 
C 3181 3130 2778 2784 2106 2784 
C 1434 2784 1024 3130 1024 3699 
C 1024 4230 1446 4576 2099 4576 
z
M 2099 2342 
C 2886 2342 3366 1965 3366 1338 
C 3366 1075 3283 851 3123 704 
C 2906 486 2541 371 2093 371 
C 1299 371 832 730 832 1338 
C 832 1958 1312 2342 2099 2342 
z
" transform="scale(0.015625)"/>
       </defs>
       <use xlink:href="#HiraginoSansGB-W3-38"/>
       <use xlink:href="#HiraginoSansGB-W3-65f6" transform="translate(65.699997 0)"/>
      </g>
     </g>
    </g>
    <g id="xtick_5">
     <g id="line2d_9">
      <path d="M 463.562151 522.424833 
L 463.562151 26.7 
" clip-path="url(#p3f317de781)" style="fill: none; stroke: #b0b0b0; stroke-width: 0.8; stroke-linecap: square"/>
     </g>
     <g id="line2d_10">
      <g>
       <use xlink:href="#mac7701bdee" x="463.562151" y="522.424833" style="stroke: #000000; stroke-width: 0.8"/>
      </g>
     </g>
     <g id="text_5">
      <!-- 10时 -->
      <g transform="translate(457.367233 551.203722) rotate(-45) scale(0.1 -0.1)">
       <defs>
        <path id="HiraginoSansGB-W3-31" d="M 1030 4429 
C 1216 4454 1382 4467 1587 4467 
L 1933 4467 
L 1933 762 
C 1933 467 1920 262 1882 38 
L 2490 38 
C 2451 275 2438 461 2438 762 
L 2438 3872 
C 2438 4218 2458 4544 2496 4934 
C 2285 4909 2182 4902 1965 4902 
L 1562 4902 
C 1318 4902 1197 4909 1030 4934 
L 1030 4429 
z
" transform="scale(0.015625)"/>
        <path id="HiraginoSansGB-W3-30" d="M 2099 -58 
C 2688 -58 3136 166 3456 614 
C 3738 1005 3904 1690 3904 2464 
C 3904 2995 3821 3507 3661 3949 
C 3584 4160 3456 4358 3277 4538 
C 2989 4838 2579 4992 2106 4992 
C 1472 4992 979 4723 672 4205 
C 448 3834 301 3142 301 2464 
C 301 1939 384 1434 544 986 
C 621 768 755 570 928 397 
C 1229 96 1626 -58 2099 -58 
z
M 2099 4550 
C 2547 4550 2893 4352 3104 3968 
C 3270 3667 3392 3034 3392 2477 
C 3392 2003 3328 1581 3194 1184 
C 3136 998 3034 832 2893 685 
C 2701 486 2426 384 2106 384 
C 1670 384 1338 570 1114 941 
C 941 1242 813 1869 813 2464 
C 813 2931 877 3366 1011 3757 
C 1062 3917 1165 4077 1299 4224 
C 1504 4442 1766 4550 2099 4550 
z
" transform="scale(0.015625)"/>
       </defs>
       <use xlink:href="#HiraginoSansGB-W3-31"/>
       <use xlink:href="#HiraginoSansGB-W3-30" transform="translate(65.699997 0)"/>
       <use xlink:href="#HiraginoSansGB-W3-65f6" transform="translate(131.399994 0)"/>
      </g>
     </g>
    </g>
    <g id="xtick_6">
     <g id="line2d_11">
      <path d="M 553.315509 522.424833 
L 553.315509 26.7 
" clip-path="url(#p3f317de781)" style="fill: none; stroke: #b0b0b0; stroke-width: 0.8; stroke-linecap: square"/>
     </g>
     <g id="line2d_12">
      <g>
       <use xlink:href="#mac7701bdee" x="553.315509" y="522.424833" style="stroke: #000000; stroke-width: 0.8"/>
      </g>
     </g>
     <g id="text_6">
      <!-- 12时 -->
      <g transform="translate(547.12059 551.203722) rotate(-45) scale(0.1 -0.1)">
       <use xlink:href="#HiraginoSansGB-W3-31"/>
       <use xlink:href="#HiraginoSansGB-W3-32" transform="translate(65.699997 0)"/>
       <use xlink:href="#HiraginoSansGB-W3-65f6" transform="translate(131.399994 0)"/>
      </g>
     </g>
    </g>
    <g id="xtick_7">
     <g id="line2d_13">
      <path d="M 643.068866 522.424833 
L 643.068866 26.7 
" clip-path="url(#p3f317de781)" style="fill: none; stroke: #b0b0b0; stroke-width: 0.8; stroke-linecap: square"/>
     </g>
     <g id="line2d_14">
      <g>
       <use xlink:href="#mac7701bdee" x="643.068866" y="522.424833" style="stroke: #000000; stroke-width: 0.8"/>
      </g>
     </g>
     <g id="text_7">
      <!-- 14时 -->
      <g transform="translate(636.860137 551.231343) rotate(-45) scale(0.1 -0.1)">
       <use xlink:href="#HiraginoSansGB-W3-31"/>
       <use xlink:href="#HiraginoSansGB-W3-34" transform="translate(65.699997 0)"/>
       <use xlink:href="#HiraginoSansGB-W3-65f6" transform="translate(131.799988 0)"/>
      </g>
     </g>
    </g>
    <g id="xtick_8">
     <g id="line2d_15">
      <path d="M 732.822224 522.424833 
L 732.822224 26.7 
" clip-path="url(#p3f317de781)" style="fill: none; stroke: #b0b0b0; stroke-width: 0.8; stroke-linecap: square"/>
     </g>
     <g id="line2d_16">
      <g>
       <use xlink:href="#mac7701bdee" x="732.822224" y="522.424833" style="stroke: #000000; stroke-width: 0.8"/>
      </g>
     </g>
     <g id="text_8">
      <!-- 16时 -->
      <g transform="translate(726.627305 551.203722) rotate(-45) scale(0.1 -0.1)">
       <use xlink:href="#HiraginoSansGB-W3-31"/>
       <use xlink:href="#HiraginoSansGB-W3-36" transform="translate(65.699997 0)"/>
       <use xlink:href="#HiraginoSansGB-W3-65f6" transform="translate(131.399994 0)"/>
      </g>
     </g>
    </g>
    <g id="xtick_9">
     <g id="line2d_17">
      <path d="M 822.575581 522.424833 
L 822.575581 26.7 
" clip-path="url(#p3f317de781)" style="fill: none; stroke: #b0b0b0; stroke-width: 0.8; stroke-linecap: square"/>
     </g>
     <g id="line2d_18">
      <g>
       <use xlink:href="#mac7701bdee" x="822.575581" y="522.424833" style="stroke: #000000; stroke-width: 0.8"/>
      </g>
     </g>
     <g id="text_9">
      <!-- 18时 -->
      <g transform="translate(816.380663 551.203722) rotate(-45) scale(0.1 -0.1)">
       <use xlink:href="#HiraginoSansGB-W3-31"/>
       <use xlink:href="#HiraginoSansGB-W3-38" transform="translate(65.699997 0)"/>
       <use xlink:href="#HiraginoSansGB-W3-65f6" transform="translate(131.399994 0)"/>
      </g>
     </g>
    </g>
    <g id="xtick_10">
     <g id="line2d_19">
      <path d="M 912.328939 522.424833 
L 912.328939 26.7 
" clip-path="url(#p3f317de781)" style="fill: none; stroke: #b0b0b0; stroke-width: 0.8; stroke-linecap: square"/>
     </g>
     <g id="line2d_20">
      <g>
       <use xlink:href="#mac7701bdee" x="912.328939" y="522.424833" style="stroke: #000000; stroke-width: 0.8"/>
      </g>
     </g>
     <g id="text_10">
      <!-- 20时 -->
      <g transform="translate(906.13402 551.203722) rotate(-45) scale(0.1 -0.1)">
       <use xlink:href="#HiraginoSansGB-W3-32"/>
       <use xlink:href="#HiraginoSansGB-W3-30" transform="translate(65.699997 0)"/>
       <use xlink:href="#HiraginoSansGB-W3-65f6" transform="translate(131.399994 0)"/>
      </g>
     </g>
    </g>
    <g id="xtick_11">
     <g id="line2d_21">
      <path d="M 1002.082296 522.424833 
L 1002.082296 26.7 
" clip-path="url(#p3f317de781)" style="fill: none; stroke: #b0b0b0; stroke-width: 0.8; stroke-linecap: square"/>
     </g>
     <g id="line2d_22">
      <g>
       <use xlink:href="#mac7701bdee" x="1002.082296" y="522.424833" style="stroke: #000000; stroke-width: 0.8"/>
      </g>
     </g>
     <g id="text_11">
      <!-- 22时 -->
      <g transform="translate(995.887378 551.203722) rotate(-45) scale(0.1 -0.1)">
       <use xlink:href="#HiraginoSansGB-W3-32"/>
       <use xlink:href="#HiraginoSansGB-W3-32" transform="translate(65.699997 0)"/>
       <use xlink:href="#HiraginoSansGB-W3-65f6" transform="translate(131.399994 0)"/>
      </g>
     </g>
    </g>
    <g id="xtick_12">
     <g id="line2d_23">
      <path d="M 1091.835653 522.424833 
L 1091.835653 26.7 
" clip-path="url(#p3f317de781)" style="fill: none; stroke: #b0b0b0; stroke-width: 0.8; stroke-linecap: square"/>
     </g>
     <g id="line2d_24">
      <g>
       <use xlink:href="#mac7701bdee" x="1091.835653" y="522.424833" style="stroke: #000000; stroke-width: 0.8"/>
      </g>
     </g>
     <g id="text_12">
      <!-- 24时 -->
      <g transform="translate(1085.626924 551.231343) rotate(-45) scale(0.1 -0.1)">
       <use xlink:href="#HiraginoSansGB-W3-32"/>
       <use xlink:href="#HiraginoSansGB-W3-34" transform="translate(65.699997 0)"/>
       <use xlink:href="#HiraginoSansGB-W3-65f6" transform="translate(131.799988 0)"/>
      </g>
     </g>
    </g>
    <g id="text_13">
     <!-- 小时 -->
     <g transform="translate(588.192188 564.333658) scale(0.1 -0.1)">
      <defs>
       <path id="HiraginoSansGB-W3-5c0f" d="M 2944 5235 
C 2970 5050 2982 4864 2982 4589 
L 2982 224 
C 2982 96 2925 64 2688 64 
C 2432 64 2150 96 1747 173 
C 1818 -13 1843 -102 1862 -301 
C 2240 -333 2470 -346 2752 -346 
C 3277 -346 3424 -230 3424 179 
L 3424 4582 
C 3424 4870 3437 5062 3462 5235 
L 2944 5235 
z
M 6150 813 
C 5779 1824 5274 2950 4800 3840 
L 4410 3661 
C 4602 3334 4602 3334 5190 2022 
C 5370 1626 5440 1434 5741 570 
L 6150 813 
z
M 1395 3802 
C 1363 3309 1126 2458 870 1920 
C 666 1478 576 1331 211 851 
C 371 774 474 704 602 589 
C 960 1101 1069 1293 1299 1837 
C 1472 2246 1574 2547 1683 2982 
C 1818 3514 1837 3584 1869 3686 
L 1395 3802 
z
" transform="scale(0.015625)"/>
      </defs>
      <use xlink:href="#HiraginoSansGB-W3-5c0f"/>
      <use xlink:href="#HiraginoSansGB-W3-65f6" transform="translate(99.999985 0)"/>
     </g>
    </g>
   </g>
   <g id="matplotlib.axis_2">
    <g id="ytick_1">
     <g id="line2d_25">
      <path d="M 55.184375 500.322452 
L 1141.2 500.322452 
" clip-path="url(#p3f317de781)" style="fill: none; stroke: #b0b0b0; stroke-width: 0.8; stroke-linecap: square"/>
     </g>
     <g id="line2d_26">
      <defs>
       <path id="m4dd0f8224d" d="M 0 0 
L -3.5 0 
" style="stroke: #000000; stroke-width: 0.8"/>
      </defs>
      <g>
       <use xlink:href="#m4dd0f8224d" x="55.184375" y="500.322452" style="stroke: #000000; stroke-width: 0.8"/>
      </g>
     </g>
     <g id="text_14">
      <!-- 15℃ -->
      <g transform="translate(25.04375 504.15214) scale(0.1 -0.1)">
       <defs>
        <path id="HiraginoSansGB-W3-35" d="M 1261 4461 
L 2765 4461 
C 3066 4461 3270 4448 3514 4410 
L 3514 4954 
C 3258 4915 3110 4902 2765 4902 
L 1446 4902 
C 1069 4902 966 4909 768 4934 
C 781 4774 781 4749 781 4659 
C 781 4538 774 4461 762 4275 
L 621 2829 
C 595 2554 576 2419 525 2170 
L 1005 2125 
C 1075 2298 1146 2387 1299 2509 
C 1530 2688 1811 2778 2138 2778 
C 2816 2778 3258 2317 3258 1613 
C 3258 877 2778 390 2061 390 
C 1690 390 1370 525 1152 768 
C 1056 877 1011 960 947 1139 
L 422 986 
C 576 678 666 544 826 384 
C 1133 96 1549 -51 2048 -51 
C 3104 -51 3776 608 3776 1638 
C 3776 2112 3635 2490 3347 2765 
C 3059 3046 2662 3200 2195 3200 
C 1754 3200 1382 3053 1075 2758 
C 1114 2931 1114 2931 1126 3046 
L 1261 4461 
z
" transform="scale(0.015625)"/>
        <path id="HiraginoSansGB-W3-2103" d="M 838 5472 
C 435 5472 115 5152 115 4755 
C 115 4352 435 4032 838 4032 
C 1235 4032 1555 4352 1555 4755 
C 1555 5152 1235 5472 838 5472 
z
M 838 5184 
C 1075 5184 1267 4992 1267 4755 
C 1267 4512 1075 4320 838 4320 
C 595 4320 403 4512 403 4755 
C 403 4992 595 5184 838 5184 
z
M 5978 3629 
C 5824 4026 5702 4218 5478 4435 
C 5126 4781 4640 4954 4045 4954 
C 3437 4954 2944 4768 2573 4410 
C 2099 3942 1843 3245 1843 2419 
C 1843 1619 2086 922 2534 474 
C 2899 102 3418 -90 4032 -90 
C 4749 -90 5338 173 5696 653 
C 5843 858 5926 1037 6042 1414 
L 5510 1536 
C 5453 1248 5389 1088 5248 902 
C 4992 557 4563 365 4051 365 
C 3021 365 2362 1171 2362 2438 
C 2362 3712 3014 4506 4051 4506 
C 4518 4506 4909 4346 5165 4045 
C 5299 3891 5363 3757 5459 3482 
L 5978 3629 
z
" transform="scale(0.015625)"/>
       </defs>
       <use xlink:href="#HiraginoSansGB-W3-31"/>
       <use xlink:href="#HiraginoSansGB-W3-35" transform="translate(65.699997 0)"/>
       <use xlink:href="#HiraginoSansGB-W3-2103" transform="translate(131.399994 0)"/>
      </g>
     </g>
    </g>
    <g id="ytick_2">
     <g id="line2d_27">
      <path d="M 55.184375 468.747622 
L 1141.2 468.747622 
" clip-path="url(#p3f317de781)" style="fill: none; stroke: #b0b0b0; stroke-width: 0.8; stroke-linecap: square"/>
     </g>
     <g id="line2d_28">
      <g>
       <use xlink:href="#m4dd0f8224d" x="55.184375" y="468.747622" style="stroke: #000000; stroke-width: 0.8"/>
      </g>
     </g>
     <g id="text_15">
      <!-- 16℃ -->
      <g transform="translate(25.04375 472.577309) scale(0.1 -0.1)">
       <use xlink:href="#HiraginoSansGB-W3-31"/>
       <use xlink:href="#HiraginoSansGB-W3-36" transform="translate(65.699997 0)"/>
       <use xlink:href="#HiraginoSansGB-W3-2103" transform="translate(131.399994 0)"/>
      </g>
     </g>
    </g>
    <g id="ytick_3">
     <g id="line2d_29">
      <path d="M 55.184375 437.172792 
L 1141.2 437.172792 
" clip-path="url(#p3f317de781)" style="fill: none; stroke: #b0b0b0; stroke-width: 0.8; stroke-linecap: square"/>
     </g>
     <g id="line2d_30">
      <g>
       <use xlink:href="#m4dd0f8224d" x="55.184375" y="437.172792" style="stroke: #000000; stroke-width: 0.8"/>
      </g>
     </g>
     <g id="text_16">
      <!-- 17℃ -->
      <g transform="translate(25.04375 441.002479) scale(0.1 -0.1)">
       <defs>
        <path id="HiraginoSansGB-W3-37" d="M 3789 4934 
C 3565 4909 3424 4902 3046 4902 
L 1126 4902 
C 819 4902 646 4915 397 4947 
L 397 4403 
C 640 4435 819 4448 1120 4448 
L 3200 4448 
C 2630 3674 2355 3232 2048 2592 
C 1651 1773 1478 1197 1274 38 
L 1882 38 
C 1984 781 2054 1107 2221 1638 
C 2470 2419 2739 2963 3315 3853 
C 3565 4237 3674 4378 3789 4467 
L 3789 4934 
z
" transform="scale(0.015625)"/>
       </defs>
       <use xlink:href="#HiraginoSansGB-W3-31"/>
       <use xlink:href="#HiraginoSansGB-W3-37" transform="translate(65.699997 0)"/>
       <use xlink:href="#HiraginoSansGB-W3-2103" transform="translate(131.399994 0)"/>
      </g>
     </g>
    </g>
    <g id="ytick_4">
     <g id="line2d_31">
      <path d="M 55.184375 405.597962 
L 1141.2 405.597962 
" clip-path="url(#p3f317de781)" style="fill: none; stroke: #b0b0b0; stroke-width: 0.8; stroke-linecap: square"/>
     </g>
     <g id="line2d_32">
      <g>
       <use xlink:href="#m4dd0f8224d" x="55.184375" y="405.597962" style="stroke: #000000; stroke-width: 0.8"/>
      </g>
     </g>
     <g id="text_17">
      <!-- 18℃ -->
      <g transform="translate(25.04375 409.427649) scale(0.1 -0.1)">
       <use xlink:href="#HiraginoSansGB-W3-31"/>
       <use xlink:href="#HiraginoSansGB-W3-38" transform="translate(65.699997 0)"/>
       <use xlink:href="#HiraginoSansGB-W3-2103" transform="translate(131.399994 0)"/>
      </g>
     </g>
    </g>
    <g id="ytick_5">
     <g id="line2d_33">
      <path d="M 55.184375 374.023131 
L 1141.2 374.023131 
" clip-path="url(#p3f317de781)" style="fill: none; stroke: #b0b0b0; stroke-width: 0.8; stroke-linecap: square"/>
     </g>
     <g id="line2d_34">
      <g>
       <use xlink:href="#m4dd0f8224d" x="55.184375" y="374.023131" style="stroke: #000000; stroke-width: 0.8"/>
      </g>
     </g>
     <g id="text_18">
      <!-- 19℃ -->
      <g transform="translate(25.04375 377.852819) scale(0.1 -0.1)">
       <defs>
        <path id="HiraginoSansGB-W3-39" d="M 416 934 
C 582 595 685 448 864 301 
C 1139 70 1498 -45 1939 -45 
C 2528 -45 2950 147 3270 550 
C 3616 979 3802 1702 3802 2592 
C 3802 3142 3744 3578 3616 3923 
C 3373 4589 2784 4998 2067 4998 
C 1018 4998 333 4333 333 3315 
C 333 2861 493 2438 768 2163 
C 1043 1888 1446 1741 1920 1741 
C 2400 1741 2758 1882 3085 2189 
C 3200 2310 3251 2374 3341 2547 
C 3328 2221 3309 1958 3283 1798 
C 3232 1498 3130 1184 3008 979 
C 2771 576 2438 390 1978 390 
C 1626 390 1350 493 1171 691 
C 1069 800 1018 890 941 1101 
L 416 934 
z
M 1978 2170 
C 1280 2170 838 2624 838 3347 
C 838 3597 902 3853 1005 4019 
C 1216 4358 1600 4563 2022 4563 
C 2707 4563 3219 4045 3219 3354 
C 3219 2675 2688 2170 1978 2170 
z
" transform="scale(0.015625)"/>
       </defs>
       <use xlink:href="#HiraginoSansGB-W3-31"/>
       <use xlink:href="#HiraginoSansGB-W3-39" transform="translate(65.699997 0)"/>
       <use xlink:href="#HiraginoSansGB-W3-2103" transform="translate(131.399994 0)"/>
      </g>
     </g>
    </g>
    <g id="ytick_6">
     <g id="line2d_35">
      <path d="M 55.184375 342.448301 
L 1141.2 342.448301 
" clip-path="url(#p3f317de781)" style="fill: none; stroke: #b0b0b0; stroke-width: 0.8; stroke-linecap: square"/>
     </g>
     <g id="line2d_36">
      <g>
       <use xlink:href="#m4dd0f8224d" x="55.184375" y="342.448301" style="stroke: #000000; stroke-width: 0.8"/>
      </g>
     </g>
     <g id="text_19">
      <!-- 20℃ -->
      <g transform="translate(25.04375 346.277989) scale(0.1 -0.1)">
       <use xlink:href="#HiraginoSansGB-W3-32"/>
       <use xlink:href="#HiraginoSansGB-W3-30" transform="translate(65.699997 0)"/>
       <use xlink:href="#HiraginoSansGB-W3-2103" transform="translate(131.399994 0)"/>
      </g>
     </g>
    </g>
    <g id="ytick_7">
     <g id="line2d_37">
      <path d="M 55.184375 310.873471 
L 1141.2 310.873471 
" clip-path="url(#p3f317de781)" style="fill: none; stroke: #b0b0b0; stroke-width: 0.8; stroke-linecap: square"/>
     </g>
     <g id="line2d_38">
      <g>
       <use xlink:href="#m4dd0f8224d" x="55.184375" y="310.873471" style="stroke: #000000; stroke-width: 0.8"/>
      </g>
     </g>
     <g id="text_20">
      <!-- 21℃ -->
      <g transform="translate(25.04375 314.703159) scale(0.1 -0.1)">
       <use xlink:href="#HiraginoSansGB-W3-32"/>
       <use xlink:href="#HiraginoSansGB-W3-31" transform="translate(65.699997 0)"/>
       <use xlink:href="#HiraginoSansGB-W3-2103" transform="translate(131.399994 0)"/>
      </g>
     </g>
    </g>
    <g id="ytick_8">
     <g id="line2d_39">
      <path d="M 55.184375 279.298641 
L 1141.2 279.298641 
" clip-path="url(#p3f317de781)" style="fill: none; stroke: #b0b0b0; stroke-width: 0.8; stroke-linecap: square"/>
     </g>
     <g id="line2d_40">
      <g>
       <use xlink:href="#m4dd0f8224d" x="55.184375" y="279.298641" style="stroke: #000000; stroke-width: 0.8"/>
      </g>
     </g>
     <g id="text_21">
      <!-- 22℃ -->
      <g transform="translate(25.04375 283.128329) scale(0.1 -0.1)">
       <use xlink:href="#HiraginoSansGB-W3-32"/>
       <use xlink:href="#HiraginoSansGB-W3-32" transform="translate(65.699997 0)"/>
       <use xlink:href="#HiraginoSansGB-W3-2103" transform="translate(131.399994 0)"/>
      </g>
     </g>
    </g>
    <g id="ytick_9">
     <g id="line2d_41">
      <path d="M 55.184375 247.723811 
L 1141.2 247.723811 
" clip-path="url(#p3f317de781)" style="fill: none; stroke: #b0b0b0; stroke-width: 0.8; stroke-linecap: square"/>
     </g>
     <g id="line2d_42">
      <g>
       <use xlink:href="#m4dd0f8224d" x="55.184375" y="247.723811" style="stroke: #000000; stroke-width: 0.8"/>
      </g>
     </g>
     <g id="text_22">
      <!-- 23℃ -->
      <g transform="translate(25.04375 251.553498) scale(0.1 -0.1)">
       <defs>
        <path id="HiraginoSansGB-W3-33" d="M 288 1088 
C 403 762 480 621 614 467 
C 922 122 1402 -58 2048 -58 
C 3117 -58 3782 480 3782 1344 
C 3782 1754 3635 2093 3354 2310 
C 3136 2477 2938 2547 2566 2586 
C 2861 2643 3002 2694 3168 2816 
C 3450 3014 3616 3360 3616 3750 
C 3616 4518 3027 5005 2099 5005 
C 1542 5005 1107 4845 826 4538 
C 666 4371 589 4224 480 3898 
L 1011 3782 
C 1082 4019 1126 4122 1216 4237 
C 1395 4467 1677 4576 2067 4576 
C 2714 4576 3098 4256 3098 3706 
C 3098 3475 3002 3238 2842 3085 
C 2643 2886 2330 2790 1907 2790 
C 1734 2790 1581 2803 1434 2829 
L 1434 2323 
C 1606 2342 1766 2355 1946 2355 
C 2797 2355 3251 2010 3251 1376 
C 3251 768 2784 384 2042 384 
C 1715 384 1434 461 1216 614 
C 1018 755 928 890 826 1222 
L 288 1088 
z
" transform="scale(0.015625)"/>
       </defs>
       <use xlink:href="#HiraginoSansGB-W3-32"/>
       <use xlink:href="#HiraginoSansGB-W3-33" transform="translate(65.699997 0)"/>
       <use xlink:href="#HiraginoSansGB-W3-2103" transform="translate(131.399994 0)"/>
      </g>
     </g>
    </g>
    <g id="ytick_10">
     <g id="line2d_43">
      <path d="M 55.184375 216.148981 
L 1141.2 216.148981 
" clip-path="url(#p3f317de781)" style="fill: none; stroke: #b0b0b0; stroke-width: 0.8; stroke-linecap: square"/>
     </g>
     <g id="line2d_44">
      <g>
       <use xlink:href="#m4dd0f8224d" x="55.184375" y="216.148981" style="stroke: #000000; stroke-width: 0.8"/>
      </g>
     </g>
     <g id="text_23">
      <!-- 24℃ -->
      <g transform="translate(25.004687 219.978668) scale(0.1 -0.1)">
       <use xlink:href="#HiraginoSansGB-W3-32"/>
       <use xlink:href="#HiraginoSansGB-W3-34" transform="translate(65.699997 0)"/>
       <use xlink:href="#HiraginoSansGB-W3-2103" transform="translate(131.799988 0)"/>
      </g>
     </g>
    </g>
    <g id="ytick_11">
     <g id="line2d_45">
      <path d="M 55.184375 184.574151 
L 1141.2 184.574151 
" clip-path="url(#p3f317de781)" style="fill: none; stroke: #b0b0b0; stroke-width: 0.8; stroke-linecap: square"/>
     </g>
     <g id="line2d_46">
      <g>
       <use xlink:href="#m4dd0f8224d" x="55.184375" y="184.574151" style="stroke: #000000; stroke-width: 0.8"/>
      </g>
     </g>
     <g id="text_24">
      <!-- 25℃ -->
      <g transform="translate(25.04375 188.403838) scale(0.1 -0.1)">
       <use xlink:href="#HiraginoSansGB-W3-32"/>
       <use xlink:href="#HiraginoSansGB-W3-35" transform="translate(65.699997 0)"/>
       <use xlink:href="#HiraginoSansGB-W3-2103" transform="translate(131.399994 0)"/>
      </g>
     </g>
    </g>
    <g id="ytick_12">
     <g id="line2d_47">
      <path d="M 55.184375 152.999321 
L 1141.2 152.999321 
" clip-path="url(#p3f317de781)" style="fill: none; stroke: #b0b0b0; stroke-width: 0.8; stroke-linecap: square"/>
     </g>
     <g id="line2d_48">
      <g>
       <use xlink:href="#m4dd0f8224d" x="55.184375" y="152.999321" style="stroke: #000000; stroke-width: 0.8"/>
      </g>
     </g>
     <g id="text_25">
      <!-- 26℃ -->
      <g transform="translate(25.04375 156.829008) scale(0.1 -0.1)">
       <use xlink:href="#HiraginoSansGB-W3-32"/>
       <use xlink:href="#HiraginoSansGB-W3-36" transform="translate(65.699997 0)"/>
       <use xlink:href="#HiraginoSansGB-W3-2103" transform="translate(131.399994 0)"/>
      </g>
     </g>
    </g>
    <g id="ytick_13">
     <g id="line2d_49">
      <path d="M 55.184375 121.42449 
L 1141.2 121.42449 
" clip-path="url(#p3f317de781)" style="fill: none; stroke: #b0b0b0; stroke-width: 0.8; stroke-linecap: square"/>
     </g>
     <g id="line2d_50">
      <g>
       <use xlink:href="#m4dd0f8224d" x="55.184375" y="121.42449" style="stroke: #000000; stroke-width: 0.8"/>
      </g>
     </g>
     <g id="text_26">
      <!-- 27℃ -->
      <g transform="translate(25.04375 125.254178) scale(0.1 -0.1)">
       <use xlink:href="#HiraginoSansGB-W3-32"/>
       <use xlink:href="#HiraginoSansGB-W3-37" transform="translate(65.699997 0)"/>
       <use xlink:href="#HiraginoSansGB-W3-2103" transform="translate(131.399994 0)"/>
      </g>
     </g>
    </g>
    <g id="ytick_14">
     <g id="line2d_51">
      <path d="M 55.184375 89.84966 
L 1141.2 89.84966 
" clip-path="url(#p3f317de781)" style="fill: none; stroke: #b0b0b0; stroke-width: 0.8; stroke-linecap: square"/>
     </g>
     <g id="line2d_52">
      <g>
       <use xlink:href="#m4dd0f8224d" x="55.184375" y="89.84966" style="stroke: #000000; stroke-width: 0.8"/>
      </g>
     </g>
     <g id="text_27">
      <!-- 28℃ -->
      <g transform="translate(25.04375 93.679348) scale(0.1 -0.1)">
       <use xlink:href="#HiraginoSansGB-W3-32"/>
       <use xlink:href="#HiraginoSansGB-W3-38" transform="translate(65.699997 0)"/>
       <use xlink:href="#HiraginoSansGB-W3-2103" transform="translate(131.399994 0)"/>
      </g>
     </g>
    </g>
    <g id="ytick_15">
     <g id="line2d_53">
      <path d="M 55.184375 58.27483 
L 1141.2 58.27483 
" clip-path="url(#p3f317de781)" style="fill: none; stroke: #b0b0b0; stroke-width: 0.8; stroke-linecap: square"/>
     </g>
     <g id="line2d_54">
      <g>
       <use xlink:href="#m4dd0f8224d" x="55.184375" y="58.27483" style="stroke: #000000; stroke-width: 0.8"/>
      </g>
     </g>
     <g id="text_28">
      <!-- 29℃ -->
      <g transform="translate(25.04375 62.104518) scale(0.1 -0.1)">
       <use xlink:href="#HiraginoSansGB-W3-32"/>
       <use xlink:href="#HiraginoSansGB-W3-39" transform="translate(65.699997 0)"/>
       <use xlink:href="#HiraginoSansGB-W3-2103" transform="translate(131.399994 0)"/>
      </g>
     </g>
    </g>
    <g id="ytick_16">
     <g id="line2d_55">
      <path d="M 55.184375 26.7 
L 1141.2 26.7 
" clip-path="url(#p3f317de781)" style="fill: none; stroke: #b0b0b0; stroke-width: 0.8; stroke-linecap: square"/>
     </g>
     <g id="line2d_56">
      <g>
       <use xlink:href="#m4dd0f8224d" x="55.184375" y="26.7" style="stroke: #000000; stroke-width: 0.8"/>
      </g>
     </g>
     <g id="text_29">
      <!-- 30℃ -->
      <g transform="translate(25.04375 30.529688) scale(0.1 -0.1)">
       <use xlink:href="#HiraginoSansGB-W3-33"/>
       <use xlink:href="#HiraginoSansGB-W3-30" transform="translate(65.699997 0)"/>
       <use xlink:href="#HiraginoSansGB-W3-2103" transform="translate(131.399994 0)"/>
      </g>
     </g>
    </g>
    <g id="text_30">
     <!-- 温度(℃) -->
     <g transform="translate(18.964062 293.121792) rotate(-90) scale(0.1 -0.1)">
      <defs>
       <path id="HiraginoSansGB-W3-6e29" d="M 621 4973 
C 1050 4685 1306 4461 1645 4090 
L 1907 4416 
C 1542 4774 1299 4973 877 5261 
L 621 4973 
z
M 320 3411 
C 749 3149 1005 2944 1389 2554 
L 1645 2906 
C 1267 3238 954 3475 557 3712 
L 320 3411 
z
M 1389 1914 
C 1056 998 698 314 358 -26 
L 736 -358 
C 781 -269 813 -211 864 -134 
C 1229 486 1408 851 1728 1670 
L 1389 1914 
z
M 4858 2790 
C 5094 2790 5293 2784 5453 2771 
C 5434 2970 5427 3098 5427 3296 
L 5427 4589 
C 5427 4794 5434 4915 5453 5114 
C 5318 5094 5139 5088 4838 5088 
L 2918 5088 
C 2630 5088 2458 5094 2310 5114 
C 2323 4947 2330 4794 2330 4576 
L 2330 3315 
C 2330 3098 2323 2931 2310 2771 
C 2477 2784 2682 2790 2906 2790 
L 4858 2790 
z
M 2714 4742 
L 5043 4742 
L 5043 4122 
L 2714 4122 
L 2714 4742 
z
M 2714 3782 
L 5043 3782 
L 5043 3123 
L 2714 3123 
L 2714 3782 
z
M 5702 173 
L 5702 1734 
C 5702 1920 5702 1958 5728 2214 
C 5568 2195 5446 2189 5139 2189 
L 2662 2189 
C 2374 2189 2240 2195 2074 2214 
C 2086 2042 2093 1926 2093 1709 
L 2099 173 
L 1920 173 
C 1766 173 1632 179 1485 205 
L 1485 -211 
C 1677 -186 1901 -173 2112 -173 
L 5594 -173 
C 5901 -186 5901 -186 6010 -186 
C 6067 -186 6125 -192 6221 -211 
L 6221 205 
C 6086 179 5997 173 5818 173 
L 5702 173 
z
M 2477 1850 
L 3174 1850 
L 3174 173 
L 2477 173 
L 2477 1850 
z
M 3539 1850 
L 4243 1850 
L 4243 173 
L 3539 173 
L 3539 1850 
z
M 4608 1850 
L 5325 1850 
L 5325 173 
L 4608 173 
L 4608 1850 
z
" transform="scale(0.015625)"/>
       <path id="HiraginoSansGB-W3-5ea6" d="M 2432 3411 
L 2432 2778 
C 2432 2650 2426 2515 2413 2394 
C 2502 2406 2618 2406 2874 2406 
L 4301 2406 
C 4544 2406 4589 2406 4717 2394 
C 4704 2509 4698 2630 4698 2778 
L 4698 3411 
L 5466 3411 
C 5741 3411 5907 3405 6048 3379 
L 6048 3789 
C 5894 3763 5754 3757 5466 3757 
L 4698 3757 
L 4698 3853 
C 4698 4038 4704 4160 4723 4275 
L 4282 4275 
C 4294 4154 4307 4019 4307 3853 
L 4307 3757 
L 2822 3757 
L 2822 3866 
C 2822 4026 2829 4141 2848 4275 
L 2406 4275 
C 2426 4154 2432 4038 2432 3859 
L 2432 3757 
L 1267 3757 
L 1274 4435 
L 5370 4435 
C 5670 4435 5843 4429 6035 4403 
L 6035 4826 
C 5869 4800 5677 4787 5338 4787 
L 3770 4787 
C 3731 4845 3731 4851 3725 4858 
C 3494 5248 3494 5248 3379 5414 
L 3034 5222 
C 3162 5050 3194 4998 3322 4787 
L 1498 4787 
C 1248 4787 1043 4800 838 4819 
C 858 4634 864 4442 864 4038 
C 864 2605 806 1715 672 1082 
C 582 640 454 320 218 -77 
C 352 -166 442 -243 557 -390 
C 845 134 979 512 1088 1082 
C 1197 1670 1242 2214 1267 3411 
L 2432 3411 
z
M 2822 3411 
L 4307 3411 
L 4307 2733 
L 2822 2733 
L 2822 3411 
z
M 5018 1926 
C 4890 1914 4781 1907 4576 1907 
L 2253 1907 
C 1926 1907 1747 1914 1606 1939 
L 1606 1542 
C 1773 1568 1914 1574 2240 1574 
C 2566 1101 2848 800 3270 499 
C 2675 205 2054 38 1120 -83 
C 1216 -237 1261 -333 1299 -480 
C 2298 -307 2918 -102 3622 275 
C 4256 -96 4934 -314 5888 -454 
C 5939 -288 5990 -173 6080 -32 
C 5312 19 4621 198 3994 499 
C 4346 742 4736 1094 5030 1434 
C 5139 1562 5171 1594 5248 1677 
L 5018 1926 
z
M 4653 1574 
C 4250 1139 4045 966 3629 704 
C 3200 973 2925 1229 2688 1574 
L 4653 1574 
z
" transform="scale(0.015625)"/>
       <path id="HiraginoSansGB-W3-28" d="M 2093 -762 
C 1734 -211 1594 77 1453 531 
C 1306 992 1235 1478 1235 1984 
C 1235 2490 1306 2970 1453 3430 
C 1594 3885 1734 4173 2093 4723 
L 1690 4979 
C 1318 4410 1165 4102 1011 3648 
C 838 3130 749 2579 749 1984 
C 749 1389 838 838 1011 320 
C 1165 -141 1318 -448 1690 -1018 
L 2093 -762 
z
" transform="scale(0.015625)"/>
       <path id="HiraginoSansGB-W3-29" d="M 179 4723 
C 538 4173 678 3885 819 3430 
C 966 2970 1037 2496 1037 1984 
C 1037 1472 966 992 819 531 
C 678 77 538 -211 179 -762 
L 582 -1018 
C 954 -448 1107 -141 1261 320 
C 1440 838 1523 1382 1523 1984 
C 1523 2579 1440 3130 1261 3648 
C 1107 4102 954 4410 582 4979 
L 179 4723 
z
" transform="scale(0.015625)"/>
      </defs>
      <use xlink:href="#HiraginoSansGB-W3-6e29"/>
      <use xlink:href="#HiraginoSansGB-W3-5ea6" transform="translate(99.999985 0)"/>
      <use xlink:href="#HiraginoSansGB-W3-28" transform="translate(199.999969 0)"/>
      <use xlink:href="#HiraginoSansGB-W3-2103" transform="translate(235.59996 0)"/>
      <use xlink:href="#HiraginoSansGB-W3-29" transform="translate(335.599945 0)"/>
     </g>
    </g>
   </g>
   <g id="line2d_57">
    <path d="M 104.548722 121.42449 
L 194.302079 121.42449 
L 284.055436 405.597962 
L 373.808794 121.42449 
L 463.562151 216.148981 
L 553.315509 342.448301 
L 643.068866 342.448301 
L 732.822224 342.448301 
L 822.575581 500.322452 
L 912.328939 184.574151 
L 1002.082296 58.27483 
L 1091.835653 247.723811 
" clip-path="url(#p3f317de781)" style="fill: none; stroke: #1f77b4; stroke-width: 1.5; stroke-linecap: square"/>
    <defs>
     <path id="mf1b3164a32" d="M 0 3 
C 0.795609 3 1.55874 2.683901 2.12132 2.12132 
C 2.683901 1.55874 3 0.795609 3 0 
C 3 -0.795609 2.683901 -1.55874 2.12132 -2.12132 
C 1.55874 -2.683901 0.795609 -3 0 -3 
C -0.795609 -3 -1.55874 -2.683901 -2.12132 -2.12132 
C -2.683901 -1.55874 -3 -0.795609 -3 0 
C -3 0.795609 -2.683901 1.55874 -2.12132 2.12132 
C -1.55874 2.683901 -0.795609 3 0 3 
z
" style="stroke: #1f77b4"/>
    </defs>
    <g clip-path="url(#p3f317de781)">
     <use xlink:href="#mf1b3164a32" x="104.548722" y="121.42449" style="fill: #1f77b4; stroke: #1f77b4"/>
     <use xlink:href="#mf1b3164a32" x="194.302079" y="121.42449" style="fill: #1f77b4; stroke: #1f77b4"/>
     <use xlink:href="#mf1b3164a32" x="284.055436" y="405.597962" style="fill: #1f77b4; stroke: #1f77b4"/>
     <use xlink:href="#mf1b3164a32" x="373.808794" y="121.42449" style="fill: #1f77b4; stroke: #1f77b4"/>
     <use xlink:href="#mf1b3164a32" x="463.562151" y="216.148981" style="fill: #1f77b4; stroke: #1f77b4"/>
     <use xlink:href="#mf1b3164a32" x="553.315509" y="342.448301" style="fill: #1f77b4; stroke: #1f77b4"/>
     <use xlink:href="#mf1b3164a32" x="643.068866" y="342.448301" style="fill: #1f77b4; stroke: #1f77b4"/>
     <use xlink:href="#mf1b3164a32" x="732.822224" y="342.448301" style="fill: #1f77b4; stroke: #1f77b4"/>
     <use xlink:href="#mf1b3164a32" x="822.575581" y="500.322452" style="fill: #1f77b4; stroke: #1f77b4"/>
     <use xlink:href="#mf1b3164a32" x="912.328939" y="184.574151" style="fill: #1f77b4; stroke: #1f77b4"/>
     <use xlink:href="#mf1b3164a32" x="1002.082296" y="58.27483" style="fill: #1f77b4; stroke: #1f77b4"/>
     <use xlink:href="#mf1b3164a32" x="1091.835653" y="247.723811" style="fill: #1f77b4; stroke: #1f77b4"/>
    </g>
   </g>
   <g id="patch_3">
    <path d="M 55.184375 522.424833 
L 55.184375 26.7 
" style="fill: none; stroke: #000000; stroke-width: 0.8; stroke-linejoin: miter; stroke-linecap: square"/>
   </g>
   <g id="patch_4">
    <path d="M 1141.2 522.424833 
L 1141.2 26.7 
" style="fill: none; stroke: #000000; stroke-width: 0.8; stroke-linejoin: miter; stroke-linecap: square"/>
   </g>
   <g id="patch_5">
    <path d="M 55.184375 522.424833 
L 1141.2 522.424833 
" style="fill: none; stroke: #000000; stroke-width: 0.8; stroke-linejoin: miter; stroke-linecap: square"/>
   </g>
   <g id="patch_6">
    <path d="M 55.184375 26.7 
L 1141.2 26.7 
" style="fill: none; stroke: #000000; stroke-width: 0.8; stroke-linejoin: miter; stroke-linecap: square"/>
   </g>
   <g id="text_31">
    <!-- 一天温度变化折线图 -->
    <g transform="translate(544.192188 20.7) scale(0.12 -0.12)">
     <defs>
      <path id="HiraginoSansGB-W3-4e00" d="M 6016 2771 
C 5824 2739 5549 2726 5171 2726 
L 1229 2726 
C 858 2726 582 2739 378 2771 
L 378 2240 
C 582 2272 877 2285 1229 2285 
L 5171 2285 
C 5568 2285 5786 2272 6016 2240 
L 6016 2771 
z
" transform="scale(0.015625)"/>
      <path id="HiraginoSansGB-W3-5929" d="M 1107 3104 
C 800 3104 563 3117 397 3149 
L 397 2675 
C 576 2707 774 2720 1107 2720 
L 2765 2720 
C 2650 2150 2470 1741 2157 1325 
C 1741 781 1114 358 288 64 
C 429 -83 474 -147 563 -333 
C 1293 -6 1722 269 2131 678 
C 2624 1165 2938 1722 3130 2426 
C 3347 1824 3616 1350 3955 973 
C 4454 410 5037 0 5843 -358 
C 5907 -198 5978 -83 6106 64 
C 5158 410 4467 896 3987 1562 
C 3750 1888 3584 2227 3418 2720 
L 5306 2720 
C 5638 2720 5837 2707 6016 2675 
L 6016 3149 
C 5843 3117 5606 3104 5306 3104 
L 3258 3104 
C 3322 3635 3328 3725 3334 4474 
L 5094 4474 
C 5363 4474 5568 4461 5779 4435 
L 5779 4890 
C 5574 4864 5382 4851 5094 4851 
L 1318 4851 
C 1030 4851 832 4864 640 4890 
L 640 4435 
C 838 4461 1056 4474 1318 4474 
L 2912 4474 
C 2893 3616 2893 3552 2829 3104 
L 1107 3104 
z
" transform="scale(0.015625)"/>
      <path id="HiraginoSansGB-W3-53d8" d="M 3482 4691 
C 3354 4896 3290 5005 3283 5018 
C 3162 5229 3130 5280 3014 5434 
L 2662 5248 
C 2816 5043 2861 4973 3021 4691 
L 1139 4691 
C 819 4691 634 4704 435 4730 
L 435 4307 
C 621 4333 768 4339 1126 4339 
L 2387 4339 
L 2387 3085 
C 2387 2835 2374 2682 2349 2483 
L 2829 2483 
C 2797 2694 2784 2861 2784 3098 
L 2784 4339 
L 3590 4339 
L 3590 3104 
C 3590 2848 3578 2694 3552 2490 
L 4032 2490 
C 4006 2675 3994 2842 3994 3104 
L 3994 4339 
L 5248 4339 
C 5498 4339 5728 4326 5958 4307 
L 5958 4730 
C 5747 4704 5562 4691 5242 4691 
L 3482 4691 
z
M 4902 2234 
C 4774 2208 4749 2208 4544 2208 
L 1466 2208 
C 1133 2208 992 2214 806 2240 
L 806 1830 
C 966 1850 1178 1856 1408 1856 
L 1696 1856 
C 1843 1600 1997 1395 2195 1184 
C 2355 1018 2502 896 2822 672 
C 1965 256 1382 77 384 -70 
C 518 -224 550 -269 627 -442 
C 1747 -224 2419 6 3258 461 
C 4128 -32 4672 -218 5811 -442 
C 5901 -230 5990 -77 6067 0 
C 5018 134 4557 262 3635 678 
C 4237 1050 4461 1242 4941 1766 
C 5101 1933 5101 1933 5171 1990 
L 4902 2234 
z
M 4499 1856 
C 4128 1453 3866 1248 3245 870 
C 2656 1235 2445 1434 2176 1856 
L 4499 1856 
z
M 5920 2842 
C 5485 3347 5261 3578 4730 4038 
L 4429 3814 
C 4934 3373 5120 3174 5568 2573 
L 5920 2842 
z
M 1555 4058 
C 1274 3494 1024 3232 410 2829 
C 570 2726 634 2675 736 2554 
C 1344 3014 1581 3277 1914 3891 
L 1555 4058 
z
" transform="scale(0.015625)"/>
      <path id="HiraginoSansGB-W3-5316" d="M 3514 1926 
C 3878 2157 4262 2451 4525 2694 
C 4979 3110 5306 3456 5626 3853 
C 5830 4115 5850 4134 5946 4237 
L 5523 4512 
C 5421 4301 5210 4006 4934 3680 
C 4429 3085 3994 2688 3514 2368 
L 3514 4570 
C 3514 4851 3526 5088 3552 5261 
L 3053 5261 
C 3072 5101 3091 4851 3091 4570 
L 3091 2112 
C 2541 1818 2355 1734 2029 1632 
C 2170 1498 2221 1434 2291 1286 
C 2547 1382 2611 1414 3091 1670 
L 3091 326 
C 3091 -173 3251 -250 4320 -250 
C 5293 -250 5600 -192 5760 19 
C 5894 205 5984 570 6061 1274 
C 5926 1312 5792 1370 5638 1472 
C 5587 781 5523 442 5421 301 
C 5325 179 5088 147 4352 147 
C 3603 147 3514 173 3514 403 
L 3514 1926 
z
M 1357 320 
C 1357 26 1338 -218 1312 -474 
L 1811 -474 
C 1786 -211 1773 51 1773 301 
L 1773 3654 
C 2042 4262 2227 4685 2285 4845 
C 2394 5139 2394 5139 2419 5203 
L 1946 5338 
C 1914 5088 1862 4909 1728 4570 
C 1402 3744 954 3072 282 2413 
C 371 2317 486 2163 557 2042 
C 934 2445 1178 2765 1370 3117 
C 1357 2778 1357 2694 1357 2336 
L 1357 320 
z
" transform="scale(0.015625)"/>
      <path id="HiraginoSansGB-W3-6298" d="M 5043 2970 
L 5357 2970 
C 5658 2970 5875 2957 6080 2931 
L 6080 3379 
C 5869 3354 5664 3341 5338 3341 
L 3341 3341 
C 3341 3475 3341 3533 3341 3718 
L 3341 4410 
C 4378 4531 5062 4678 5882 4960 
L 5542 5331 
C 5408 5248 5229 5178 4941 5094 
C 4288 4909 3475 4774 3014 4774 
C 2995 4774 2950 4774 2906 4774 
C 2938 4557 2944 4352 2944 3923 
C 2944 2560 2874 1696 2707 1082 
C 2560 550 2381 237 2016 -141 
C 2176 -237 2253 -307 2362 -435 
C 2733 -13 2931 339 3078 864 
C 3232 1395 3283 1837 3328 2970 
L 4621 2970 
L 4621 262 
C 4621 0 4608 -256 4576 -474 
L 5088 -474 
C 5056 -262 5043 -32 5043 262 
L 5043 2970 
z
M 1709 4058 
L 1709 4678 
C 1709 4915 1722 5126 1754 5312 
L 1261 5312 
C 1293 5120 1306 4909 1306 4666 
L 1306 4058 
L 909 4058 
C 704 4058 544 4070 384 4096 
L 384 3661 
C 563 3686 723 3693 909 3693 
L 1306 3693 
L 1306 2272 
C 730 2099 538 2054 301 2029 
L 410 1581 
C 538 1626 589 1645 704 1683 
C 1037 1779 1133 1805 1306 1862 
L 1306 134 
C 1306 0 1261 -38 1082 -38 
C 864 -38 666 -26 448 13 
C 506 -141 525 -243 538 -397 
C 794 -410 883 -416 979 -416 
C 1555 -416 1709 -320 1709 26 
L 1709 1997 
C 1990 2093 2240 2189 2566 2323 
L 2566 2707 
C 2131 2534 1958 2470 1773 2413 
C 1734 2406 1734 2406 1709 2394 
L 1709 3693 
L 2003 3693 
C 2195 3693 2349 3686 2528 3661 
L 2528 4090 
C 2355 4064 2202 4058 2016 4058 
L 1709 4058 
z
" transform="scale(0.015625)"/>
      <path id="HiraginoSansGB-W3-7ebf" d="M 5434 2131 
C 5325 1882 5005 1504 4608 1158 
C 4493 1427 4365 1875 4314 2221 
L 5382 2458 
C 5702 2534 5805 2554 5984 2566 
L 5901 2982 
C 5709 2906 5619 2886 5325 2816 
L 4250 2579 
C 4173 3155 4173 3155 4141 3475 
L 5171 3667 
C 5446 3718 5638 3744 5773 3744 
L 5709 4154 
C 5562 4102 5453 4077 5126 4019 
L 4122 3827 
C 4102 4141 4077 4813 4077 5005 
C 4077 5107 4083 5184 4102 5286 
L 3616 5286 
C 3648 5120 3667 4870 3725 3968 
C 3731 3859 3731 3834 3738 3757 
L 3258 3667 
C 3046 3629 2829 3610 2675 3603 
L 2739 3194 
C 2886 3238 2982 3258 3322 3322 
L 3763 3405 
C 3808 2970 3846 2669 3878 2496 
L 3258 2355 
C 2950 2285 2854 2272 2656 2259 
L 2746 1824 
C 2893 1882 3098 1946 3322 1990 
L 3936 2131 
C 4058 1542 4141 1261 4301 909 
C 3654 442 2995 122 2310 -58 
C 2419 -186 2470 -262 2554 -435 
C 2803 -352 3213 -186 3494 -45 
C 3802 109 4147 320 4480 570 
C 4794 -19 5248 -410 5600 -410 
C 5933 -410 6106 -64 6208 832 
C 6061 909 6016 934 5862 1056 
C 5811 371 5709 26 5562 26 
C 5370 26 5011 384 4781 806 
C 5126 1094 5395 1376 5677 1741 
C 5728 1805 5747 1830 5792 1875 
L 5434 2131 
z
M 1363 5318 
C 1190 4806 986 4288 787 3891 
C 538 3392 474 3315 314 3290 
L 422 2886 
C 602 2950 954 3002 1446 3034 
C 1498 3034 1510 3034 1562 3040 
C 1421 2816 1421 2816 998 2259 
C 730 1894 627 1792 525 1760 
C 435 1734 435 1734 410 1728 
L 538 1293 
C 730 1350 838 1376 986 1408 
C 1773 1542 2323 1638 2413 1658 
L 2458 2054 
C 2054 1958 2016 1952 1043 1779 
C 1581 2406 2029 3027 2470 3731 
L 2099 3942 
C 1965 3693 1958 3674 1779 3379 
C 1331 3347 1312 3347 858 3315 
C 1088 3693 1338 4173 1562 4678 
C 1606 4781 1606 4781 1779 5152 
L 1363 5318 
z
M 4461 4986 
C 4819 4819 5114 4627 5434 4352 
L 5677 4666 
C 5357 4915 5082 5088 4717 5261 
L 4461 4986 
z
M 2394 877 
C 1914 685 1414 538 870 422 
C 627 371 422 346 314 346 
L 416 -115 
C 512 -77 544 -70 710 -26 
C 1210 102 1581 211 2150 403 
C 2202 416 2291 448 2394 480 
L 2394 877 
z
" transform="scale(0.015625)"/>
      <path id="HiraginoSansGB-W3-56fe" d="M 4410 4192 
C 4282 4173 4186 4166 3974 4166 
L 2746 4166 
C 2797 4237 2835 4294 2861 4326 
C 2874 4346 2880 4358 2886 4365 
C 2918 4410 2918 4410 2944 4448 
L 2554 4576 
C 2502 4448 2458 4346 2387 4243 
C 2131 3853 1754 3526 1222 3238 
C 1344 3155 1389 3110 1485 2982 
C 1837 3200 1958 3290 2227 3533 
C 2554 3187 2662 3085 2950 2867 
C 2413 2541 1888 2336 1062 2125 
C 1197 1978 1229 1926 1293 1805 
C 2234 2106 2662 2298 3232 2662 
C 3776 2310 4192 2138 5152 1856 
C 5229 2016 5274 2093 5363 2202 
C 4480 2400 4051 2560 3539 2874 
C 3949 3200 4192 3437 4474 3789 
C 4538 3866 4538 3872 4582 3917 
C 4595 3923 4595 3930 4608 3942 
L 4410 4192 
z
M 4077 3859 
C 3789 3494 3635 3347 3245 3066 
C 2899 3309 2778 3418 2464 3763 
C 2483 3782 2496 3802 2509 3827 
C 2522 3846 2528 3846 2534 3859 
L 4077 3859 
z
M 4582 838 
C 3539 1152 2886 1293 1875 1434 
L 1702 1120 
C 2797 979 3482 826 4448 506 
L 4582 838 
z
M 4147 1728 
C 3603 1939 3309 2035 2656 2208 
L 2483 1907 
C 3168 1734 3462 1638 4013 1408 
L 4147 1728 
z
M 954 -461 
L 954 -134 
L 5446 -134 
L 5446 -461 
L 5888 -461 
C 5856 -250 5850 -64 5850 301 
L 5850 4314 
C 5850 4621 5862 4832 5888 5101 
C 5651 5075 5491 5069 5126 5069 
L 1293 5069 
C 922 5069 755 5075 512 5101 
C 544 4813 550 4621 550 4314 
L 550 307 
C 550 -122 544 -256 512 -461 
L 954 -461 
z
M 954 4717 
L 5446 4717 
L 5446 218 
L 954 218 
L 954 4717 
z
" transform="scale(0.015625)"/>
     </defs>
     <use xlink:href="#HiraginoSansGB-W3-4e00"/>
     <use xlink:href="#HiraginoSansGB-W3-5929" transform="translate(99.999985 0)"/>
     <use xlink:href="#HiraginoSansGB-W3-6e29" transform="translate(199.999969 0)"/>
     <use xlink:href="#HiraginoSansGB-W3-5ea6" transform="translate(299.999954 0)"/>
     <use xlink:href="#HiraginoSansGB-W3-53d8" transform="translate(399.999939 0)"/>
     <use xlink:href="#HiraginoSansGB-W3-5316" transform="translate(499.999924 0)"/>
     <use xlink:href="#HiraginoSansGB-W3-6298" transform="translate(599.999908 0)"/>
     <use xlink:href="#HiraginoSansGB-W3-7ebf" transform="translate(699.999893 0)"/>
     <use xlink:href="#HiraginoSansGB-W3-56fe" transform="translate(799.999878 0)"/>
    </g>
   </g>
  </g>
 </g>
 <defs>
  <clipPath id="p3f317de781">
   <rect x="55.184375" y="26.7" width="1086.015625" height="495.724833"/>
  </clipPath>
 </defs>
</svg>
